<svg width="30" height="30" viewBox="0 0 30 30" fill="none" xmlns="http://www.w3.org/2000/svg">
<g id="material-symbols:playing-cards-outline-rounded">
<path id="Vector" d="M19.2188 17.6563L20.1875 14.1563C20.2708 13.9063 20.2654 13.6563 20.1713 13.4063C20.0771 13.1563 19.9158 12.9479 19.6875 12.7813L16.7188 10.75C16.5521 10.625 16.3696 10.5992 16.1713 10.6725C15.9729 10.7458 15.8429 10.8863 15.7813 11.0938L14.8125 14.5938C14.7292 14.8438 14.7346 15.0938 14.8288 15.3438C14.9229 15.5938 15.0842 15.8021 15.3125 15.9688L18.2813 18C18.4479 18.125 18.63 18.1513 18.8275 18.0788C19.025 18.0063 19.1554 17.8654 19.2188 17.6563ZM5 23.5313L3.96875 23.0313C3.32292 22.7604 2.88542 22.2967 2.65625 21.64C2.42709 20.9833 2.45834 20.3325 2.75 19.6875L5 14.8125V23.5313ZM10 26.25C9.3125 26.25 8.72375 26 8.23375 25.5C7.74375 25 7.49917 24.4063 7.5 23.7188V16.25L10.8438 25.4375C10.9063 25.5833 10.9583 25.7242 11 25.86C11.0417 25.9958 11.1146 26.1258 11.2188 26.25H10ZM16.4375 26.0938C15.7917 26.3229 15.1458 26.2917 14.5 26C13.8542 25.7083 13.4167 25.2396 13.1875 24.5938L7.65625 9.3125C7.42709 8.66667 7.45834 8.02584 7.75 7.39001C8.04167 6.75417 8.51042 6.32209 9.15625 6.09376L18.5625 2.65625C19.2083 2.42709 19.8492 2.45834 20.485 2.75C21.1208 3.04167 21.5529 3.51042 21.7813 4.15625L27.3438 19.4375C27.5729 20.0833 27.5417 20.7242 27.25 21.36C26.9583 21.9958 26.4896 22.4279 25.8438 22.6563L16.4375 26.0938ZM15.5625 23.75L25 20.3125L19.4063 5L10 8.4375L15.5625 23.75Z" fill="#0F0E1D"/>
</g>
</svg>
