<svg width="30" height="30" viewBox="0 0 30 30" fill="none" xmlns="http://www.w3.org/2000/svg">
<g id="material-symbols:nest-clock-farsight-analog-outline-rounded">
<path id="Vector" d="M16.25 15.2188L19.0625 18.0312C19.2917 18.2604 19.4062 18.5471 19.4062 18.8913C19.4062 19.2354 19.2917 19.5321 19.0625 19.7812C18.8125 20.0312 18.5154 20.1562 18.1712 20.1562C17.8271 20.1562 17.5304 20.0312 17.2812 19.7812L14.125 16.625C14 16.5 13.9062 16.3592 13.8438 16.2025C13.7812 16.0458 13.75 15.8846 13.75 15.7188V11.25C13.75 10.8958 13.87 10.5987 14.11 10.3587C14.35 10.1187 14.6467 9.99917 15 10C15.3542 10 15.6513 10.12 15.8913 10.36C16.1313 10.6 16.2508 10.8967 16.25 11.25V15.2188ZM15 7.5C14.6458 7.5 14.3487 7.38 14.1087 7.14C13.8687 6.9 13.7492 6.60333 13.75 6.25V5H16.25V6.25C16.25 6.60417 16.13 6.90125 15.89 7.14125C15.65 7.38125 15.3533 7.50083 15 7.5ZM22.5 15C22.5 14.6458 22.62 14.3487 22.86 14.1087C23.1 13.8687 23.3967 13.7492 23.75 13.75H25V16.25H23.75C23.3958 16.25 23.0988 16.13 22.8588 15.89C22.6188 15.65 22.4992 15.3533 22.5 15ZM15 22.5C15.3542 22.5 15.6513 22.62 15.8913 22.86C16.1313 23.1 16.2508 23.3967 16.25 23.75V25H13.75V23.75C13.75 23.3958 13.87 23.0988 14.11 22.8588C14.35 22.6188 14.6467 22.4992 15 22.5ZM7.5 15C7.5 15.3542 7.38 15.6513 7.14 15.8913C6.9 16.1313 6.60333 16.2508 6.25 16.25H5V13.75H6.25C6.60417 13.75 6.90125 13.87 7.14125 14.11C7.38125 14.35 7.50083 14.6467 7.5 15ZM15 27.5C13.2708 27.5 11.6458 27.1717 10.125 26.515C8.60417 25.8583 7.28125 24.9679 6.15625 23.8438C5.03125 22.7188 4.14083 21.3958 3.485 19.875C2.82917 18.3542 2.50083 16.7292 2.5 15C2.5 13.2708 2.82833 11.6458 3.485 10.125C4.14167 8.60417 5.03208 7.28125 6.15625 6.15625C7.28125 5.03125 8.60417 4.14083 10.125 3.485C11.6458 2.82917 13.2708 2.50083 15 2.5C16.7292 2.5 18.3542 2.82833 19.875 3.485C21.3958 4.14167 22.7188 5.03208 23.8438 6.15625C24.9688 7.28125 25.8596 8.60417 26.5162 10.125C27.1729 11.6458 27.5008 13.2708 27.5 15C27.5 16.7292 27.1717 18.3542 26.515 19.875C25.8583 21.3958 24.9679 22.7188 23.8438 23.8438C22.7188 24.9688 21.3958 25.8596 19.875 26.5162C18.3542 27.1729 16.7292 27.5008 15 27.5ZM25 15C25 12.2083 24.0312 9.84375 22.0938 7.90625C20.1562 5.96875 17.7917 5 15 5C12.2083 5 9.84375 5.96875 7.90625 7.90625C5.96875 9.84375 5 12.2083 5 15C5 17.7917 5.96875 20.1562 7.90625 22.0938C9.84375 24.0312 12.2083 25 15 25C17.7917 25 20.1562 24.0312 22.0938 22.0938C24.0312 20.1562 25 17.7917 25 15Z" fill="#0F0E1D"/>
</g>
</svg>
