<svg width="45" height="46" viewBox="0 0 45 46" fill="none" xmlns="http://www.w3.org/2000/svg">
<g id="material-symbols:drag-handle-rounded">
<path id="Vector" d="M9.42139 28.6898C8.89581 28.6898 8.45495 28.5118 8.09879 28.1556C7.74264 27.7995 7.56518 27.3592 7.56641 26.8349C7.56641 26.3093 7.74449 25.8684 8.10065 25.5123C8.4568 25.1561 8.89705 24.9787 9.42139 24.9799H35.391C35.9166 24.9799 36.3575 25.158 36.7136 25.5141C37.0698 25.8703 37.2472 26.3105 37.246 26.8349C37.246 27.3604 37.0679 27.8013 36.7118 28.1575C36.3556 28.5136 35.9154 28.6911 35.391 28.6898H9.42139ZM9.42139 21.27C8.89581 21.27 8.45495 21.0919 8.09879 20.7357C7.74264 20.3796 7.56518 19.9393 7.56641 19.415C7.56641 18.8894 7.74449 18.4485 8.10065 18.0924C8.4568 17.7362 8.89705 17.5588 9.42139 17.56H35.391C35.9166 17.56 36.3575 17.7381 36.7136 18.0942C37.0698 18.4504 37.2472 18.8906 37.246 19.415C37.246 19.9406 37.0679 20.3814 36.7118 20.7376C36.3556 21.0937 35.9154 21.2712 35.391 21.27H9.42139Z" fill="black"/>
</g>
</svg>
