<svg width="25" height="25" viewBox="0 0 25 25" fill="none" xmlns="http://www.w3.org/2000/svg">
<g id="material-symbols:edit-outline-rounded">
<path id="Vector" d="M5.21778 19.1519H6.61778L15.2428 10.5269L13.8428 9.12686L5.21778 17.7519V19.1519ZM19.5178 9.07686L15.2678 4.87686L16.6678 3.47686C17.0511 3.09352 17.5221 2.90186 18.0808 2.90186C18.6394 2.90186 19.1101 3.09352 19.4928 3.47686L20.8928 4.87686C21.2761 5.26019 21.4761 5.72286 21.4928 6.26486C21.5094 6.80686 21.3261 7.26919 20.9428 7.65186L19.5178 9.07686ZM4.21778 21.1519C3.93444 21.1519 3.69678 21.0559 3.50478 20.8639C3.31278 20.6719 3.21711 20.4345 3.21778 20.1519V17.3269C3.21778 17.1935 3.24278 17.0642 3.29278 16.9389C3.34278 16.8135 3.41778 16.7012 3.51778 16.6019L13.8178 6.30186L18.0678 10.5519L7.76778 20.8519C7.66778 20.9519 7.55544 21.0269 7.43078 21.0769C7.30611 21.1269 7.17678 21.1519 7.04278 21.1519H4.21778ZM14.5428 9.82686L13.8428 9.12686L15.2428 10.5269L14.5428 9.82686Z" fill="#0F0E1D"/>
</g>
</svg>
