<svg width="29" height="29" viewBox="0 0 29 29" fill="none" xmlns="http://www.w3.org/2000/svg">
<g id="material-symbols:filter-alt-outline">
<path id="Vector" d="M13.436 23.8333C13.1055 23.8333 12.8282 23.7213 12.6042 23.4973C12.3802 23.2733 12.2686 22.9964 12.2693 22.6667V15.6667L5.50267 7.03334C5.21101 6.64445 5.16706 6.23611 5.37084 5.80834C5.57462 5.38056 5.92967 5.16667 6.43601 5.16667H22.7693C23.2749 5.16667 23.63 5.38056 23.8345 5.80834C24.0391 6.23611 23.9951 6.64445 23.7027 7.03334L16.936 15.6667V22.6667C16.936 22.9972 16.824 23.2745 16.6 23.4985C16.376 23.7225 16.0991 23.8341 15.7693 23.8333H13.436ZM14.6027 14.85L20.3777 7.5H8.82767L14.6027 14.85Z" fill="#FF7A14"/>
</g>
</svg>
