<svg width="64" height="64" viewBox="0 0 64 64" fill="none" xmlns="http://www.w3.org/2000/svg">
<g id="material-symbols:more-vert">
<path id="Vector" d="M32 53.3333C30.5334 53.3333 29.2774 52.8107 28.232 51.7653C27.1867 50.72 26.6649 49.4649 26.6667 48C26.6667 46.5333 27.1894 45.2773 28.2347 44.232C29.28 43.1867 30.5351 42.6649 32 42.6667C33.4667 42.6667 34.7227 43.1893 35.768 44.2347C36.8134 45.28 37.3351 46.5351 37.3334 48C37.3334 49.4667 36.8107 50.7227 35.7654 51.768C34.72 52.8133 33.4649 53.3351 32 53.3333ZM32 37.3333C30.5334 37.3333 29.2774 36.8107 28.232 35.7653C27.1867 34.72 26.6649 33.4649 26.6667 32C26.6667 30.5333 27.1894 29.2773 28.2347 28.232C29.28 27.1867 30.5351 26.6649 32 26.6667C33.4667 26.6667 34.7227 27.1893 35.768 28.2347C36.8134 29.28 37.3351 30.5351 37.3334 32C37.3334 33.4667 36.8107 34.7227 35.7654 35.768C34.72 36.8133 33.4649 37.3351 32 37.3333ZM32 21.3333C30.5334 21.3333 29.2774 20.8107 28.232 19.7653C27.1867 18.72 26.6649 17.4649 26.6667 16C26.6667 14.5333 27.1894 13.2773 28.2347 12.232C29.28 11.1867 30.5351 10.6649 32 10.6667C33.4667 10.6667 34.7227 11.1893 35.768 12.2347C36.8134 13.28 37.3351 14.5351 37.3334 16C37.3334 17.4667 36.8107 18.7227 35.7654 19.768C34.72 20.8133 33.4649 21.3351 32 21.3333Z" fill="#0F0E1D"/>
</g>
</svg>
