<svg width="25" height="25" viewBox="0 0 25 25" fill="none" xmlns="http://www.w3.org/2000/svg">
<g id="material-symbols:mountain-flag-outline">
<path id="Vector" d="M8.91777 13.0769L10.2928 14.0019L12.2178 13.0269L14.1428 14.0019L15.4678 13.1269L14.4678 11.1519H9.86777L8.91777 13.0769ZM5.44277 20.1519H18.9678L16.3678 14.9269L14.2928 16.3019L12.2178 15.2769L10.1428 16.3019L8.01777 14.9019L5.44277 20.1519ZM2.21777 22.1519L8.06777 10.2769C8.23444 9.94352 8.48044 9.67252 8.80577 9.46386C9.13111 9.25519 9.48511 9.15119 9.86777 9.15186H11.2178V2.15186H18.2178L17.2178 4.15186L18.2178 6.15186H13.2178V9.15186H14.4678C14.8511 9.15186 15.2011 9.25186 15.5178 9.45186C15.8344 9.65186 16.0844 9.91852 16.2678 10.2519L22.2178 22.1519H2.21777Z" fill="#0F0E1D"/>
</g>
</svg>
