<svg width="24" height="30" viewBox="0 0 24 30" fill="none" xmlns="http://www.w3.org/2000/svg">
<path id="Vector" d="M1.5 25.5C1.075 25.5 0.718505 25.356 0.430505 25.068C0.142505 24.78 -0.000994809 24.424 5.1903e-06 24C5.1903e-06 23.575 0.144005 23.2185 0.432005 22.9305C0.720005 22.6425 1.076 22.499 1.5 22.5H3V12C3 9.925 3.625 8.081 4.875 6.468C6.125 4.855 7.75 3.799 9.75 3.3V2.25C9.75 1.625 9.969 1.0935 10.407 0.655503C10.845 0.217503 11.376 -0.000996583 12 3.41685e-06C12.625 3.41685e-06 13.1565 0.219003 13.5945 0.657003C14.0325 1.095 14.251 1.626 14.25 2.25V3.3C16.25 3.8 17.875 4.8565 19.125 6.4695C20.375 8.0825 21 9.926 21 12V22.5H22.5C22.925 22.5 23.2815 22.644 23.5695 22.932C23.8575 23.22 24.001 23.576 24 24C24 24.425 23.856 24.7815 23.568 25.0695C23.28 25.3575 22.924 25.501 22.5 25.5H1.5ZM12 30C11.175 30 10.4685 29.706 9.8805 29.118C9.2925 28.53 8.999 27.824 9 27H15C15 27.825 14.706 28.5315 14.118 29.1195C13.53 29.7075 12.824 30.001 12 30ZM6 22.5H18V12C18 10.35 17.4125 8.9375 16.2375 7.7625C15.0625 6.5875 13.65 6 12 6C10.35 6 8.9375 6.5875 7.7625 7.7625C6.5875 8.9375 6 10.35 6 12V22.5Z" fill="#0F0E1D"/>
</svg>
