<svg width="35" height="35" viewBox="0 0 35 35" fill="none" xmlns="http://www.w3.org/2000/svg">
<g id="material-symbols:search-rounded">
<path id="Vector" d="M13.7378 23.051C11.138 23.051 8.93786 22.1777 7.13751 20.4309C5.33715 18.6842 4.4365 16.5508 4.43555 14.0306C4.43555 11.5095 5.3362 9.37608 7.13751 7.63029C8.93881 5.88449 11.1389 5.01113 13.7378 5.01021C16.3377 5.01021 18.5378 5.88357 20.3382 7.63029C22.1385 9.37701 23.0392 11.5105 23.0401 14.0306C23.0401 15.0483 22.8732 16.0082 22.5392 16.9102C22.2053 17.8122 21.7521 18.6102 21.1797 19.3041L29.194 27.0755C29.4563 27.3299 29.5875 27.6537 29.5875 28.0469C29.5875 28.4401 29.4563 28.7639 29.194 29.0184C28.9316 29.2728 28.5977 29.4 28.1922 29.4C27.7867 29.4 27.4528 29.2728 27.1904 29.0184L19.1761 21.2469C18.4605 21.802 17.6377 22.2415 16.7074 22.5653C15.7772 22.8891 14.7873 23.051 13.7378 23.051ZM13.7378 20.2755C15.5267 20.2755 17.0476 19.6681 18.3003 18.4534C19.553 17.2386 20.1788 15.7644 20.1779 14.0306C20.1779 12.2959 19.5515 10.8212 18.2988 9.60645C17.0461 8.3917 15.5258 7.78479 13.7378 7.78572C11.9489 7.78572 10.4281 8.39309 9.17542 9.60784C7.92271 10.8226 7.29684 12.2968 7.29779 14.0306C7.29779 15.7653 7.92415 17.24 9.17686 18.4548C10.4296 19.6695 11.9499 20.2764 13.7378 20.2755Z" fill="#999999"/>
</g>
</svg>
